<svg display="none" xmlns="http://www.w3.org/2000/svg">
	<symbol id="account"  viewBox="0 0 512 512">
		<g data-name="Capa 2" id="Capa_2">
			<path d="M411.81,415.37H100.19a6,6,0,0,1-6-6c0-89.22,72.59-161.81,161.81-161.81s161.81,
			72.59,161.81,161.81A6,6,0,0,1,411.81,415.37Zm-305.5-12H405.69c-3.16-79.83-69.1-143.81-149.69-143.81S109.47,
			323.54,106.31,403.37Z"/>
			<path d="M256,254a78.69,78.69,0,1,1,78.69-78.69A78.78,78.78,0,0,1,256,254Zm0-145.38a66.69,
			66.69,0,1,0,66.69,66.69A66.77,66.77,0,0,0,256,108.63Z"/>
		</g>
	</symbol>
	<symbol id="basket" viewBox="0 0 33 33" >
		<g>
			<g>
				<path d="M27.049,30.134H5.951c-0.99,0-1.81-0.743-1.908-1.728L2.659,14.537c-0.014-0.141,0.032-0.281,0.127-0.385
				c0.095-0.105,0.229-0.165,0.371-0.165h26.688c0.141,0,0.276,0.06,0.371,0.165c0.095,0.104,0.141,0.245,0.127,0.385l-1.383,13.869
				C28.86,29.391,28.039,30.134,27.049,30.134z M3.708,14.988l1.329,13.319c0.047,0.472,0.439,0.827,0.913,0.827h21.099
				c0.474,0,0.867-0.355,0.914-0.827l1.329-13.319H3.708z"/>
				<g>
					<g>
						<path d="M7.604,9.106c-0.143,0-0.285-0.061-0.383-0.179C7.042,8.716,7.07,8.4,7.282,8.223l6.246-5.24
						c0.213-0.177,0.528-0.15,0.704,0.062c0.178,0.211,0.15,0.527-0.062,0.704l-6.246,5.24C7.831,9.067,7.717,9.106,7.604,9.106z"/>
					</g>
					<g>
					<path d="M25.397,9.106c-0.113,0-0.227-0.039-0.321-0.117l-6.247-5.24c-0.211-0.178-0.239-0.493-0.062-0.705
						c0.179-0.211,0.493-0.239,0.705-0.062l6.247,5.24c0.211,0.178,0.239,0.493,0.062,0.705C25.682,9.045,25.54,9.106,25.397,9.106z"
						/>
					</g>
				</g>
				<path d="M31.275,14.988H1.725C0.774,14.988,0,14.214,0,13.263v-3.198c0-0.951,0.774-1.725,1.725-1.725h29.55
				c0.951,0,1.725,0.774,1.725,1.725v3.198C33,14.214,32.227,14.988,31.275,14.988z M1.725,9.339C1.325,9.339,1,9.664,1,10.064v3.198
				c0,0.4,0.325,0.725,0.725,0.725h29.55c0.399,0,0.725-0.325,0.725-0.725v-3.198c0-0.4-0.325-0.725-0.725-0.725H1.725z"/>
			</g>
			<g>
	<path d="M9.255,26.048c-0.276,0-0.5-0.224-0.5-0.5v-7.25c0-0.276,0.224-0.5,0.5-0.5s0.5,0.224,0.5,0.5v7.25
	C9.755,25.825,9.532,26.048,9.255,26.048z"/>
	<path d="M14.085,26.048c-0.276,0-0.5-0.224-0.5-0.5v-7.25c0-0.276,0.224-0.5,0.5-0.5s0.5,0.224,0.5,0.5v7.25
	C14.585,25.825,14.362,26.048,14.085,26.048z"/>
	<path d="M18.915,26.048c-0.276,0-0.5-0.224-0.5-0.5v-7.25c0-0.276,0.224-0.5,0.5-0.5s0.5,0.224,0.5,0.5v7.25
	C19.415,25.825,19.191,26.048,18.915,26.048z"/>
	<path d="M23.745,26.048c-0.276,0-0.5-0.224-0.5-0.5v-7.25c0-0.276,0.224-0.5,0.5-0.5s0.5,0.224,0.5,0.5v7.25
	C24.245,25.825,24.021,26.048,23.745,26.048z"/>
	</g>
		</g>
		<g>
		</g>
		<g>
		</g>
		<g>
		</g>
		<g>
		</g>
		<g>
		</g>
		<g>
		</g>
		<g>
		</g>
		<g>
		</g>
		<g>
		</g>
		<g>
		</g>
		<g>
		</g>
		<g>
		</g>
		<g>
		</g>
		<g>
		</g>
		<g>
		</g>
	</symbol>
</svg>
